<svg xmlns="http://www.w3.org/2000/svg" viewBox="0 0 622.14 151.79"><defs><style>.cls-1{fill:#ce0e2d;}.cls-2{fill:#1d252c;}</style></defs><title>Asset 2</title><g id="Layer_2" data-name="Layer 2"><g id="Layer_1-2" data-name="Layer 1"><path class="cls-1" d="M85.32,130.18H0v18a3.62,3.62,0,0,0,3.62,3.61H88.93v-18A3.62,3.62,0,0,0,85.32,130.18Z"/><path class="cls-2" d="M67.23,0H0V18.07a3.62,3.62,0,0,0,3.62,3.62H59.29A3.61,3.61,0,0,1,62.9,25.3h0V83.4A3.61,3.61,0,0,1,59.29,87H26V46.66A3.59,3.59,0,0,0,25,44.1L13,32.23,1.07,44.1A3.63,3.63,0,0,0,0,46.66v61.79H67.23A21.69,21.69,0,0,0,88.92,86.76h0V21.69A21.69,21.69,0,0,0,67.23,0Z"/><path class="cls-2" d="M288.48,0H242.93a21.69,21.69,0,0,0-21.7,21.68h0v86.76h26V72.55H284.1v35.9h26V21.69A21.69,21.69,0,0,0,288.48,0Zm-4.34,51.11H247.23V25.3a3.61,3.61,0,0,1,3.61-3.61h29.69a3.61,3.61,0,0,1,3.61,3.61Z"/><path class="cls-2" d="M429.83,0V18.07a3.61,3.61,0,0,0,3.6,3.62h27.85v86.76h26V21.69h27.83a3.62,3.62,0,0,0,3.62-3.62V0Z"/><path class="cls-2" d="M622.14,50.86V21.69A21.69,21.69,0,0,0,600.45,0H533.23V108.45h26V72.55h21.7L594,106.18a3.61,3.61,0,0,0,3.37,2.3h24.73L607.42,71.42A21.69,21.69,0,0,0,622.14,50.86ZM559.23,21.69h33.26a3.62,3.62,0,0,1,3.62,3.61V47.49a3.62,3.62,0,0,1-3.62,3.62H559.23Z"/><path class="cls-2" d="M199.55,50.86V21.69A21.69,21.69,0,0,0,177.86,0H110.62V108.45h26V72.55h21.71l13.12,33.63a3.61,3.61,0,0,0,3.37,2.3h24.73L184.83,71.39A21.71,21.71,0,0,0,199.55,50.86Zm-62.9-29.17h33.26a3.61,3.61,0,0,1,3.61,3.61V47.49a3.62,3.62,0,0,1-3.61,3.62H136.65Z"/><path class="cls-2" d="M331.86,0V108.45h26.37V72.3H402a2.53,2.53,0,0,0,2.53-2.53h0V50.61H358.23V21.69h53.55a3.62,3.62,0,0,0,3.62-3.62V0Z"/></g></g></svg>